<?xml version="1.0" encoding="UTF-8"?>
<svg id="_图层_1" data-name="图层 1" xmlns="http://www.w3.org/2000/svg" viewBox="0 0 934.5 225.32">
  <defs>
    <style>
      .cls-1 {
        fill: #626262;
        opacity: .95;
      }

      .cls-1, .cls-2 {
        stroke-width: 0px;
      }

      .cls-2 {
        fill: #46bef2;
      }
    </style>
  </defs>
  <polygon class="cls-1" points="522.52 0 458.55 0 414.91 0 350.55 0 350.55 43.7 414.91 43.7 414.91 224.42 458.55 224.42 458.55 43.7 522.52 43.7 522.52 0"/>
  <polygon class="cls-1" points="728.51 224.42 728.51 180.69 660.62 180.69 633 224.42 728.51 224.42"/>
  <polygon class="cls-2" points="572.43 180.72 556.55 180.72 556.55 224.42 601.14 224.42 715.25 43.7 728.51 43.7 728.51 0 686.53 0 572.43 180.72"/>
  <polygon class="cls-1" points="556.55 0 556.55 43.7 624.47 43.7 652.06 0 556.55 0"/>
  <path class="cls-1" d="m150.64,180.72c7.35,16.79,20.85,30.26,37.65,37.64,8.91,3.9,18.79,6.06,29.16,6.06h26.23c10.37,0,20.25-2.16,29.16-6.06,16.8-7.38,30.28-20.85,37.65-37.64,3.88-8.92,6.08-18.76,6.08-29.12V0h-43.73v151.6c0,16.08-13.05,29.12-29.16,29.12h-26.23c-16.11,0-29.16-13.05-29.16-29.12V0h-43.71v151.6c0,10.36,2.19,20.2,6.07,29.12Z"/>
  <path class="cls-1" d="m66.85,29.12v122.47c0,16.08-13.06,29.12-29.15,29.12H0v43.7h37.7c10.36,0,20.22-2.16,29.15-6.06,16.8-7.38,30.29-20.85,37.65-37.64,3.88-8.92,6.04-18.76,6.04-29.12V0h-43.68v29.12Z"/>
  <path class="cls-1" d="m835.37,43.7h99.13V0h-99.13c-10.32,0-20.2,2.16-29.12,6.1-16.78,7.3-30.29,20.8-37.63,37.61-3.72,8.55-5.88,17.95-6.04,27.85v18.91h-.04v43.41h.04v18.91c.16,9.93,2.27,19.36,6.04,27.94,7.34,16.79,20.85,30.26,37.63,37.64,8.91,3.9,18.8,6.06,29.12,6.06h99.13v-43.7h-99.13c-15.67,0-28.39-12.38-29.03-27.94v-18.91h15.34v.19h112.82v-43.7h-112.82v.1h-15.34v-18.91c.67-15.5,13.39-27.85,29.03-27.85Z"/>
</svg>