<svg width="123" height="32" viewBox="0 0 123 32" fill="none" xmlns="http://www.w3.org/2000/svg">
<path fill-rule="evenodd" clip-rule="evenodd" d="M73.2156 5.08789H75.3953V4.08008H73.2156V3.52539C73.2156 2.80664 73.3328 2.28581 73.5671 1.96289C73.8015 1.63477 74.1635 1.4707 74.6531 1.4707C75.0072 1.4707 75.4343 1.55143 75.9343 1.71289L76.2703 0.673828C75.6609 0.491536 75.1296 0.400391 74.6765 0.400391C72.838 0.400391 71.9187 1.45247 71.9187 3.55664V4.0332L70.3875 4.50195V5.08789H71.9187V12.6426H73.2156V5.08789ZM68.7859 12.6426H67.489V4.08008H68.7859V12.6426ZM67.3796 1.75977C67.3796 1.46289 67.4526 1.24674 67.5984 1.11133C67.7442 0.970703 67.9265 0.900391 68.1453 0.900391C68.3536 0.900391 68.5333 0.970703 68.6843 1.11133C68.8354 1.25195 68.9109 1.4681 68.9109 1.75977C68.9109 2.05143 68.8354 2.27018 68.6843 2.41602C68.5333 2.55664 68.3536 2.62695 68.1453 2.62695C67.9265 2.62695 67.7442 2.55664 67.5984 2.41602C67.4526 2.27018 67.3796 2.05143 67.3796 1.75977ZM52.5515 12.6426L51.1296 9.00977H46.5515L45.1453 12.6426H43.8015L48.3171 1.17383H49.4343L53.9265 12.6426H52.5515ZM50.7156 7.81445L49.3875 4.27539C49.2156 3.82747 49.0385 3.27799 48.8562 2.62695C48.7416 3.12695 48.5776 3.67643 48.364 4.27539L47.0203 7.81445H50.7156ZM59.2078 3.92383C59.588 3.92383 59.9291 3.95508 60.2312 4.01758L60.0515 5.2207C59.6973 5.14258 59.3848 5.10352 59.114 5.10352C58.4213 5.10352 57.8276 5.38477 57.3328 5.94727C56.8432 6.50977 56.5984 7.21029 56.5984 8.04883V12.6426H55.3015V4.08008H56.3718L56.5203 5.66602H56.5828C56.9005 5.10872 57.2833 4.67904 57.7312 4.37695C58.1791 4.07487 58.6713 3.92383 59.2078 3.92383ZM65.2625 11.6816C65.0489 11.7129 64.8276 11.7285 64.5984 11.7285C64.1713 11.7285 63.8354 11.5905 63.5906 11.3145C63.3458 11.0384 63.2234 10.6426 63.2234 10.127V5.08789H65.7078V4.08008H63.2234V2.0957H62.4734L61.9265 3.92383L60.7 4.46289V5.08789H61.9265V10.1816C61.9265 11.9264 62.7546 12.7988 64.4109 12.7988C64.6296 12.7988 64.8744 12.7754 65.1453 12.7285C65.4213 12.6868 65.6296 12.6322 65.7703 12.5645V11.5723C65.6453 11.6087 65.476 11.6452 65.2625 11.6816ZM82.2234 12.6426L81.9656 11.4238H81.9031C81.476 11.9603 81.0489 12.3249 80.6218 12.5176C80.2 12.7051 79.6713 12.7988 79.0359 12.7988C78.1869 12.7988 77.5203 12.5801 77.0359 12.1426C76.5567 11.7051 76.3171 11.0827 76.3171 10.2754C76.3171 8.54622 77.7 7.63997 80.4656 7.55664L81.9187 7.50977V6.97852C81.9187 6.30664 81.7729 5.81185 81.4812 5.49414C81.1947 5.17122 80.7338 5.00977 80.0984 5.00977C79.3848 5.00977 78.5776 5.22852 77.6765 5.66602L77.2781 4.67383C77.7 4.44466 78.1609 4.26497 78.6609 4.13477C79.1661 4.00456 79.6713 3.93945 80.1765 3.93945C81.1973 3.93945 81.9526 4.16602 82.4421 4.61914C82.9369 5.07227 83.1843 5.79883 83.1843 6.79883V12.6426H82.2234ZM79.2937 11.7285C80.101 11.7285 80.7338 11.5072 81.1921 11.0645C81.6557 10.6217 81.8875 10.002 81.8875 9.20508V8.43164L80.5906 8.48633C79.5593 8.52279 78.8145 8.68425 78.3562 8.9707C77.9031 9.25195 77.6765 9.69206 77.6765 10.291C77.6765 10.7598 77.8171 11.1165 78.0984 11.3613C78.3848 11.6061 78.7833 11.7285 79.2937 11.7285ZM86.4031 11.6582C87.0854 12.4186 88.0463 12.7988 89.2859 12.7988C90.1557 12.7988 90.877 12.6504 91.45 12.3535V11.2051C90.7 11.5124 89.9682 11.666 89.2546 11.666C88.4213 11.666 87.7911 11.3848 87.364 10.8223C86.9421 10.2598 86.7312 9.45247 86.7312 8.40039C86.7312 6.18164 87.601 5.07227 89.3406 5.07227C89.601 5.07227 89.9005 5.11133 90.239 5.18945C90.5776 5.26237 90.8901 5.35612 91.1765 5.4707L91.575 4.36914C91.3406 4.24935 91.0177 4.14518 90.6062 4.05664C90.1947 3.9681 89.7833 3.92383 89.3718 3.92383C88.0958 3.92383 87.1114 4.31445 86.4187 5.0957C85.7312 5.87695 85.3875 6.98372 85.3875 8.41602C85.3875 9.81185 85.726 10.8926 86.4031 11.6582ZM96.2546 11.7285C96.4838 11.7285 96.7052 11.7129 96.9187 11.6816C97.1322 11.6452 97.3015 11.6087 97.4265 11.5723V12.5645C97.2859 12.6322 97.0776 12.6868 96.8015 12.7285C96.5307 12.7754 96.2859 12.7988 96.0671 12.7988C94.4109 12.7988 93.5828 11.9264 93.5828 10.1816V5.08789H92.3562V4.46289L93.5828 3.92383L94.1296 2.0957H94.8796V4.08008H97.364V5.08789H94.8796V10.127C94.8796 10.6426 95.002 11.0384 95.2468 11.3145C95.4916 11.5905 95.8276 11.7285 96.2546 11.7285ZM105.481 11.627C106.184 10.8405 106.536 9.74935 106.536 8.35352C106.536 6.99414 106.182 5.91602 105.473 5.11914C104.77 4.32227 103.82 3.92383 102.622 3.92383C101.382 3.92383 100.413 4.31445 99.7156 5.0957C99.0177 5.87174 98.6687 6.95768 98.6687 8.35352C98.6687 9.25456 98.8302 10.041 99.1531 10.7129C99.476 11.3848 99.9343 11.9004 100.528 12.2598C101.122 12.6191 101.802 12.7988 102.567 12.7988C103.807 12.7988 104.778 12.4082 105.481 11.627ZM100.669 10.8535C100.231 10.2806 100.012 9.44727 100.012 8.35352C100.012 7.24935 100.229 6.41862 100.661 5.86133C101.093 5.30404 101.734 5.02539 102.583 5.02539C103.442 5.02539 104.091 5.30924 104.528 5.87695C104.971 6.43945 105.192 7.26497 105.192 8.35352C105.192 9.45247 104.971 10.2884 104.528 10.8613C104.091 11.429 103.447 11.7129 102.598 11.7129C101.749 11.7129 101.106 11.4264 100.669 10.8535ZM112.723 3.92383C113.104 3.92383 113.445 3.95508 113.747 4.01758L113.567 5.2207C113.213 5.14258 112.9 5.10352 112.63 5.10352C111.937 5.10352 111.343 5.38477 110.848 5.94727C110.359 6.50977 110.114 7.21029 110.114 8.04883V12.6426H108.817V4.08008H109.887L110.036 5.66602H110.098C110.416 5.10872 110.799 4.67904 111.247 4.37695C111.695 4.07487 112.187 3.92383 112.723 3.92383ZM115.38 4.08008H113.989L117.442 12.6895L116.966 13.9082C116.585 14.9082 115.95 15.4082 115.059 15.4082C114.705 15.4082 114.385 15.377 114.098 15.3145V16.3535C114.484 16.4421 114.874 16.4863 115.27 16.4863C115.979 16.4863 116.575 16.2832 117.059 15.877C117.549 15.4759 117.976 14.7936 118.341 13.8301L122.02 4.08008H120.63C119.432 7.39258 118.723 9.37175 118.505 10.0176C118.291 10.6582 118.15 11.1113 118.083 11.377H118.02C117.921 10.8822 117.666 10.0775 117.255 8.96289L115.38 4.08008ZM7.5293 27.6206C8.28255 26.77 8.65918 25.6021 8.65918 24.1167C8.65918 22.6271 8.28467 21.4591 7.53564 20.6128C6.78662 19.7664 5.74561 19.3433 4.4126 19.3433C3.0415 19.3433 1.98356 19.7601 1.23877 20.5938C0.493978 21.4232 0.121582 22.5933 0.121582 24.104C0.121582 25.6274 0.491862 26.8081 1.23242 27.646C1.97721 28.4797 3.03304 28.8965 4.3999 28.8965C5.73714 28.8965 6.78027 28.4712 7.5293 27.6206ZM2.06396 26.9795C1.53076 26.3278 1.26416 25.3735 1.26416 24.1167C1.26416 22.8768 1.53076 21.9331 2.06396 21.2856C2.6014 20.634 3.38428 20.3081 4.4126 20.3081C5.43669 20.3081 6.20898 20.6318 6.72949 21.2793C7.25423 21.9225 7.5166 22.8683 7.5166 24.1167C7.5166 25.3778 7.25423 26.332 6.72949 26.9795C6.20475 27.627 5.42822 27.9507 4.3999 27.9507C3.38005 27.9507 2.6014 27.627 2.06396 26.9795ZM12.8693 28.6489C13.246 28.814 13.6607 28.8965 14.1135 28.8965C15.0191 28.8965 15.7258 28.5812 16.2336 27.9507C16.7456 27.3159 17.0017 26.4272 17.0017 25.2847C17.0017 24.1463 16.7499 23.2619 16.2463 22.6313C15.7469 22.0008 15.036 21.6855 14.1135 21.6855C13.648 21.6855 13.2354 21.7702 12.8757 21.9395C12.516 22.1087 12.2007 22.3838 11.9299 22.7646H11.8791L11.7331 21.8125H10.8762V31.8926H11.9299V29.0298C11.9299 28.6659 11.9045 28.2808 11.8537 27.8745H11.9299C12.1838 28.2215 12.4969 28.4797 12.8693 28.6489ZM12.4187 23.1709C12.736 22.7773 13.2502 22.5806 13.9611 22.5806C14.579 22.5806 15.0572 22.8133 15.3957 23.2788C15.7385 23.7401 15.9099 24.4045 15.9099 25.272C15.9099 26.1268 15.7385 26.7975 15.3957 27.2842C15.0572 27.7708 14.5874 28.0142 13.9865 28.0142C13.2671 28.0142 12.7445 27.8047 12.4187 27.3857C12.0928 26.9626 11.9299 26.2622 11.9299 25.2847V25.0498C11.9383 24.1908 12.1013 23.5645 12.4187 23.1709ZM22.0878 28.8965C21.0595 28.8965 20.247 28.5833 19.6503 27.957C19.0578 27.3307 18.7616 26.4611 18.7616 25.3481C18.7616 24.2267 19.0367 23.3359 19.5868 22.6758C20.1412 22.0156 20.8839 21.6855 21.8148 21.6855C22.6866 21.6855 23.3764 21.9733 23.8842 22.5488C24.392 23.1201 24.6459 23.8755 24.6459 24.8149V25.4814H19.8534C19.8746 26.2982 20.0798 26.9181 20.4691 27.3413C20.8627 27.7645 21.4149 27.9761 22.1259 27.9761C22.8749 27.9761 23.6155 27.8195 24.3476 27.5063V28.4458C23.9752 28.6066 23.6218 28.7209 23.2875 28.7886C22.9574 28.8605 22.5575 28.8965 22.0878 28.8965ZM21.8021 22.5679C21.2436 22.5679 20.7971 22.7498 20.4628 23.1138C20.1327 23.4777 19.9381 23.9813 19.8788 24.6245H23.516C23.516 23.9601 23.3679 23.4523 23.0717 23.1011C22.7755 22.7456 22.3523 22.5679 21.8021 22.5679ZM31.5094 24.269V28.7695H32.5631V24.231C32.5631 23.3423 32.3515 22.6969 31.9283 22.2949C31.5051 21.8887 30.8746 21.6855 30.0367 21.6855C29.5585 21.6855 29.1248 21.7808 28.7354 21.9712C28.3461 22.1574 28.0436 22.4219 27.8277 22.7646H27.777L27.6056 21.8125H26.7486V28.7695H27.8023V25.1196C27.8023 24.214 27.9716 23.5645 28.3102 23.1709C28.6487 22.7773 29.1819 22.5806 29.9098 22.5806C30.4599 22.5806 30.864 22.7202 31.1222 22.9995C31.3803 23.2788 31.5094 23.702 31.5094 24.269ZM44.1064 26.3003C44.1064 27.117 43.8102 27.7539 43.2178 28.2109C42.6253 28.668 41.8213 28.8965 40.8057 28.8965C39.7054 28.8965 38.8591 28.7547 38.2666 28.4712V27.4302C38.6475 27.591 39.0622 27.7179 39.5107 27.811C39.9593 27.9041 40.4036 27.9507 40.8438 27.9507C41.5632 27.9507 42.1048 27.8153 42.4688 27.5444C42.8327 27.2694 43.0146 26.8885 43.0146 26.4019C43.0146 26.0802 42.9491 25.8179 42.8179 25.6147C42.6909 25.4074 42.4751 25.217 42.1704 25.0435C41.87 24.87 41.4108 24.6732 40.793 24.4531C39.9297 24.1442 39.3118 23.7782 38.9395 23.355C38.5713 22.9318 38.3872 22.3796 38.3872 21.6982C38.3872 20.9831 38.6559 20.4139 39.1934 19.9907C39.7308 19.5675 40.4417 19.356 41.3262 19.356C42.2487 19.356 43.0972 19.5252 43.8716 19.8638L43.5352 20.8032C42.7692 20.4816 42.0244 20.3208 41.3008 20.3208C40.7295 20.3208 40.283 20.4435 39.9614 20.689C39.6398 20.9344 39.479 21.2751 39.479 21.7109C39.479 22.0326 39.5382 22.297 39.6567 22.5044C39.7752 22.7075 39.9741 22.8958 40.2534 23.0693C40.5369 23.2386 40.9686 23.4269 41.5483 23.6343C42.5216 23.9813 43.1903 24.3537 43.5542 24.7515C43.9224 25.1493 44.1064 25.6655 44.1064 26.3003ZM51.2937 27.9443C51.8649 27.3053 52.1506 26.4188 52.1506 25.2847C52.1506 24.1802 51.8628 23.3042 51.2873 22.6567C50.716 22.0093 49.9437 21.6855 48.9704 21.6855C47.9632 21.6855 47.1761 22.0029 46.6091 22.6377C46.042 23.2682 45.7585 24.1506 45.7585 25.2847C45.7585 26.0168 45.8897 26.6558 46.1521 27.2017C46.4144 27.7476 46.7868 28.1665 47.2692 28.4585C47.7517 28.7505 48.3039 28.8965 48.926 28.8965C49.9331 28.8965 50.7224 28.5791 51.2937 27.9443ZM47.3835 27.3159C47.028 26.8504 46.8503 26.1733 46.8503 25.2847C46.8503 24.3875 47.0259 23.7126 47.3771 23.2598C47.7284 22.807 48.2489 22.5806 48.9387 22.5806C49.6369 22.5806 50.1638 22.8112 50.5192 23.2725C50.8789 23.7295 51.0588 24.4002 51.0588 25.2847C51.0588 26.1776 50.8789 26.8568 50.5192 27.3223C50.1638 27.7835 49.6411 28.0142 48.9514 28.0142C48.2616 28.0142 47.739 27.7814 47.3835 27.3159ZM55.2943 21.8125V26.3257C55.2943 26.8927 55.4234 27.3159 55.6815 27.5952C55.9397 27.8745 56.3438 28.0142 56.8939 28.0142C57.6218 28.0142 58.1529 27.8153 58.4872 27.4175C58.8257 27.0197 58.995 26.3701 58.995 25.4688V21.8125H60.0487V28.7695H59.1791L59.0268 27.8364H58.9696C58.7538 28.1792 58.4534 28.4416 58.0683 28.6235C57.6874 28.8055 57.2515 28.8965 56.7606 28.8965C55.9143 28.8965 55.2795 28.6955 54.8563 28.2935C54.4374 27.8914 54.2279 27.2482 54.2279 26.3638V21.8125H55.2943ZM66.5948 21.7617C66.3494 21.7109 66.0722 21.6855 65.7633 21.6855C65.3274 21.6855 64.9275 21.8083 64.5636 22.0537C64.1996 22.2992 63.8886 22.6483 63.6305 23.1011H63.5797L63.4591 21.8125H62.5895V28.7695H63.6432V25.0371C63.6432 24.3558 63.8421 23.7866 64.2398 23.3296C64.6419 22.8726 65.1243 22.644 65.6871 22.644C65.9072 22.644 66.1611 22.6758 66.4488 22.7393L66.5948 21.7617ZM70.9764 28.8965C69.9692 28.8965 69.1884 28.5876 68.6341 27.9697C68.0839 27.3477 67.8089 26.4696 67.8089 25.3354C67.8089 24.1717 68.0882 23.2725 68.6468 22.6377C69.2096 22.0029 70.0094 21.6855 71.0462 21.6855C71.3805 21.6855 71.7148 21.7215 72.0491 21.7935C72.3834 21.8654 72.6458 21.95 72.8362 22.0474L72.5125 22.9424C72.2797 22.8493 72.0258 22.7731 71.7508 22.7139C71.4757 22.6504 71.2324 22.6187 71.0208 22.6187C69.6074 22.6187 68.9007 23.52 68.9007 25.3228C68.9007 26.1776 69.0721 26.8335 69.4148 27.2905C69.7618 27.7476 70.2739 27.9761 70.951 27.9761C71.5307 27.9761 72.1253 27.8512 72.7347 27.6016V28.5347C72.2692 28.7759 71.6831 28.8965 70.9764 28.8965ZM75.1929 27.957C75.7896 28.5833 76.6021 28.8965 77.6304 28.8965C78.1001 28.8965 78.5 28.8605 78.8301 28.7886C79.1644 28.7209 79.5177 28.6066 79.8901 28.4458V27.5063C79.158 27.8195 78.4175 27.9761 77.6685 27.9761C76.9575 27.9761 76.4053 27.7645 76.0117 27.3413C75.6224 26.9181 75.4172 26.2982 75.396 25.4814H80.1885V24.8149C80.1885 23.8755 79.9346 23.1201 79.4268 22.5488C78.9189 21.9733 78.2292 21.6855 77.3574 21.6855C76.4264 21.6855 75.6838 22.0156 75.1294 22.6758C74.5793 23.3359 74.3042 24.2267 74.3042 25.3481C74.3042 26.4611 74.6004 27.3307 75.1929 27.957ZM76.0054 23.1138C76.3397 22.7498 76.7861 22.5679 77.3447 22.5679C77.8949 22.5679 78.318 22.7456 78.6143 23.1011C78.9105 23.4523 79.0586 23.9601 79.0586 24.6245H75.4214C75.4806 23.9813 75.6753 23.4777 76.0054 23.1138Z" fill="#F5F6F7"/>
<g opacity="0.8">
<path d="M5.2035 11.2126V1.13257H2.6475V11.4826C2.6475 12.8326 2.5935 13.3366 2.3955 13.7866C2.1795 14.2906 1.5855 14.9026 0.9375 15.2986L2.1075 16.5946C3.2415 16.1626 4.6635 15.1906 5.0235 13.6606C5.1495 13.1566 5.2035 12.8326 5.2035 11.2126Z" fill="#39C03F"/>
<path d="M14.5115 1.13257H7.72547V13.6426H10.2455V8.08057H13.4315V6.02857H10.2455V3.16657H14.2235L14.5115 1.13257Z" fill="#39C03F"/>
<path d="M20.8389 4.40857C20.4609 4.24657 20.2989 4.21057 19.9389 4.21057C19.0389 4.21057 18.3009 4.82257 17.7789 5.52457C17.7429 5.00257 17.6169 4.58857 17.4009 4.21057L15.2409 4.78657C15.4389 5.30857 15.5829 6.24457 15.5829 7.48657V13.6426H17.9949V7.12657C18.4449 6.60457 18.9309 6.35257 19.4709 6.35257C19.7409 6.35257 19.9389 6.40657 20.1729 6.53257L20.8389 4.40857Z" fill="#39C03F"/>
<path d="M29.1756 8.99857C29.1756 7.50457 28.8516 6.49657 28.1136 5.63257C27.3216 4.69657 26.2956 4.24657 24.9816 4.24657C22.4976 4.24657 20.8416 6.17257 20.8416 9.07057C20.8416 11.9686 22.4796 13.8406 24.9816 13.8406C26.4036 13.8406 27.3216 13.3546 28.0236 12.5626C28.8156 11.6626 29.1756 10.5826 29.1756 8.99857ZM26.5476 8.98057C26.5476 11.1586 26.0976 12.0946 25.0536 12.0946C24.5856 12.0946 24.0456 11.8426 23.8296 11.3386C23.6316 10.8706 23.5236 10.0786 23.5236 9.01657C23.5236 8.09857 23.6136 7.45057 23.7756 6.96457C23.9736 6.38857 24.4416 6.02857 25.0176 6.02857C25.4496 6.02857 25.8276 6.20857 26.0616 6.51457C26.3856 6.92857 26.5476 7.73857 26.5476 8.98057Z" fill="#39C03F"/>
<path d="M40.1952 5.43457L39.1872 3.90457C38.6292 4.40857 37.9452 4.69657 37.2792 4.69657C36.9732 4.69657 36.6492 4.62457 36.1452 4.49857C35.4792 4.33657 35.0112 4.26457 34.4892 4.26457C32.1312 4.26457 30.6012 5.48857 30.6012 7.37857C30.6012 8.74657 31.2492 9.59257 32.5812 9.93457C31.0692 10.3306 30.8892 10.8886 30.8892 11.4826C30.8892 12.1126 31.1592 12.5266 31.5912 12.6886C32.0232 12.8686 32.7252 12.9586 33.8052 12.9766L34.8312 12.9946C35.7852 13.0126 36.5232 13.2646 36.5232 14.0926C36.5232 14.4706 36.2892 14.8126 35.9292 15.0286C35.5512 15.2626 35.0292 15.3346 34.4172 15.3346C33.3012 15.3346 32.6892 14.9386 32.6892 14.2006C32.6892 13.9486 32.7072 13.8226 32.7972 13.6066H30.5652C30.4752 13.7866 30.3492 14.0386 30.3492 14.5426C30.3492 15.1726 30.6012 15.7126 31.1052 16.1806C31.9332 16.9546 33.2832 17.1706 34.5972 17.1706C36.0372 17.1706 37.4232 16.8466 38.2332 15.9826C38.7372 15.4426 38.9712 14.8486 38.9712 14.0746C38.9712 13.2466 38.7192 12.6166 38.1792 12.1126C37.5312 11.5186 36.7932 11.3026 35.3892 11.2846L34.0932 11.2666C33.8412 11.2666 33.6972 11.1766 33.6972 11.0506C33.6972 10.7986 34.0392 10.5826 34.6512 10.2946C34.8312 10.3126 34.9032 10.3126 35.0112 10.3126C36.9732 10.3126 38.4132 9.16057 38.4132 7.57657C38.4132 6.96457 38.2332 6.49657 37.8732 6.06457C38.0172 6.08257 38.2692 6.11857 38.5032 6.11857C39.1692 6.11857 39.6732 5.92057 40.1952 5.43457ZM35.9292 7.39657C35.9292 8.24257 35.4072 8.71057 34.4532 8.71057C33.6072 8.71057 33.0312 8.33257 33.0312 7.39657C33.0312 6.53257 33.5532 6.02857 34.4712 6.02857C35.3892 6.02857 35.9292 6.53257 35.9292 7.39657Z" fill="#39C03F"/>
</g>
</svg>
